<mxfile host="app.diagrams.net" modified="2022-02-14T07:31:02.537Z" agent="5.0 (Windows NT 10.0; Win64; x64) AppleWebKit/537.36 (KHTML, like Gecko) Chrome/98.0.4758.82 Safari/537.36" etag="eJixVqBw9Ls_O2cq95SI" version="16.5.3" type="github">
  <diagram id="C5RBs43oDa-KdzZeNtuy" name="Page-1">
    <mxGraphModel dx="2946" dy="973" grid="1" gridSize="10" guides="1" tooltips="1" connect="1" arrows="1" fold="1" page="0" pageScale="1" pageWidth="827" pageHeight="1169" background="#F1FAEE" math="0" shadow="0">
      <root>
        <mxCell id="WIyWlLk6GJQsqaUBKTNV-0" />
        <mxCell id="WIyWlLk6GJQsqaUBKTNV-1" parent="WIyWlLk6GJQsqaUBKTNV-0" />
        <mxCell id="g67Yw9Pypv5ZU0-nCZ06-19" value="" style="edgeStyle=orthogonalEdgeStyle;rounded=1;orthogonalLoop=1;jettySize=auto;html=1;fontFamily=Lucida Console;fontSize=15;entryX=0;entryY=0.5;entryDx=0;entryDy=0;labelBackgroundColor=#F1FAEE;strokeColor=#457B9D;fontColor=#1D3557;" edge="1" parent="WIyWlLk6GJQsqaUBKTNV-1" source="g67Yw9Pypv5ZU0-nCZ06-2" target="g67Yw9Pypv5ZU0-nCZ06-26">
          <mxGeometry relative="1" as="geometry">
            <mxPoint x="-620" y="335" as="targetPoint" />
          </mxGeometry>
        </mxCell>
        <mxCell id="g67Yw9Pypv5ZU0-nCZ06-2" value="&lt;span&gt;Test&lt;br&gt;for stationarity of series&lt;/span&gt;(ADF)&lt;span&gt;&lt;br&gt;&lt;/span&gt;" style="strokeWidth=2;html=1;shape=mxgraph.flowchart.decision;whiteSpace=wrap;fontFamily=Lucida Console;fontSize=15;fillColor=#A8DADC;strokeColor=#457B9D;fontColor=#1D3557;rounded=1;" vertex="1" parent="WIyWlLk6GJQsqaUBKTNV-1">
          <mxGeometry x="-970" y="280" width="240" height="120" as="geometry" />
        </mxCell>
        <mxCell id="g67Yw9Pypv5ZU0-nCZ06-15" value="" style="edgeStyle=orthogonalEdgeStyle;rounded=1;orthogonalLoop=1;jettySize=auto;html=1;fontFamily=Lucida Console;fontSize=15;labelBackgroundColor=#F1FAEE;strokeColor=#457B9D;fontColor=#1D3557;" edge="1" parent="WIyWlLk6GJQsqaUBKTNV-1" source="g67Yw9Pypv5ZU0-nCZ06-4" target="g67Yw9Pypv5ZU0-nCZ06-2">
          <mxGeometry relative="1" as="geometry" />
        </mxCell>
        <mxCell id="g67Yw9Pypv5ZU0-nCZ06-4" value="Start" style="rounded=1;whiteSpace=wrap;html=1;fontFamily=Lucida Console;fontSize=15;strokeWidth=2;fillColor=#A8DADC;strokeColor=#457B9D;fontColor=#1D3557;" vertex="1" parent="WIyWlLk6GJQsqaUBKTNV-1">
          <mxGeometry x="-946.5" y="100" width="193" height="90" as="geometry" />
        </mxCell>
        <mxCell id="g67Yw9Pypv5ZU0-nCZ06-20" value="" style="edgeStyle=segmentEdgeStyle;endArrow=classic;html=1;rounded=1;fontFamily=Lucida Console;fontSize=15;exitX=0.5;exitY=0;exitDx=0;exitDy=0;labelBackgroundColor=#F1FAEE;strokeColor=#457B9D;fontColor=#1D3557;" edge="1" parent="WIyWlLk6GJQsqaUBKTNV-1" source="g67Yw9Pypv5ZU0-nCZ06-26">
          <mxGeometry width="50" height="50" relative="1" as="geometry">
            <mxPoint x="-510" y="230" as="sourcePoint" />
            <mxPoint x="-850" y="230" as="targetPoint" />
            <Array as="points">
              <mxPoint x="-493" y="230" />
            </Array>
          </mxGeometry>
        </mxCell>
        <mxCell id="g67Yw9Pypv5ZU0-nCZ06-23" value="No" style="text;html=1;align=center;verticalAlign=middle;resizable=0;points=[];autosize=1;strokeColor=none;fillColor=none;fontSize=15;fontFamily=Lucida Console;fontColor=#1D3557;rounded=1;" vertex="1" parent="WIyWlLk6GJQsqaUBKTNV-1">
          <mxGeometry x="-680" y="320" width="30" height="20" as="geometry" />
        </mxCell>
        <mxCell id="g67Yw9Pypv5ZU0-nCZ06-33" style="edgeStyle=orthogonalEdgeStyle;rounded=1;orthogonalLoop=1;jettySize=auto;html=1;entryX=0;entryY=0.5;entryDx=0;entryDy=0;fontFamily=Lucida Console;fontSize=15;labelBackgroundColor=#F1FAEE;strokeColor=#457B9D;fontColor=#1D3557;" edge="1" parent="WIyWlLk6GJQsqaUBKTNV-1" source="g67Yw9Pypv5ZU0-nCZ06-25" target="g67Yw9Pypv5ZU0-nCZ06-29">
          <mxGeometry relative="1" as="geometry" />
        </mxCell>
        <mxCell id="g67Yw9Pypv5ZU0-nCZ06-25" value="Draw the autocorrelation&lt;br&gt;and partial&lt;br&gt;autocorrelation&lt;br&gt;diagram" style="rounded=1;whiteSpace=wrap;html=1;fontFamily=Lucida Console;fontSize=15;strokeWidth=2;fillColor=#A8DADC;strokeColor=#457B9D;fontColor=#1D3557;" vertex="1" parent="WIyWlLk6GJQsqaUBKTNV-1">
          <mxGeometry x="-1300" y="480" width="193" height="90" as="geometry" />
        </mxCell>
        <mxCell id="g67Yw9Pypv5ZU0-nCZ06-26" value="Differentiate the current series,&lt;br&gt;namely,increasing d" style="rounded=1;whiteSpace=wrap;html=1;fontFamily=Lucida Console;fontSize=15;strokeWidth=2;fillColor=#A8DADC;strokeColor=#457B9D;fontColor=#1D3557;" vertex="1" parent="WIyWlLk6GJQsqaUBKTNV-1">
          <mxGeometry x="-590" y="295" width="193" height="90" as="geometry" />
        </mxCell>
        <mxCell id="g67Yw9Pypv5ZU0-nCZ06-34" style="edgeStyle=orthogonalEdgeStyle;rounded=1;orthogonalLoop=1;jettySize=auto;html=1;entryX=0;entryY=0.5;entryDx=0;entryDy=0;fontFamily=Lucida Console;fontSize=15;labelBackgroundColor=#F1FAEE;strokeColor=#457B9D;fontColor=#1D3557;" edge="1" parent="WIyWlLk6GJQsqaUBKTNV-1" source="g67Yw9Pypv5ZU0-nCZ06-29" target="g67Yw9Pypv5ZU0-nCZ06-32">
          <mxGeometry relative="1" as="geometry" />
        </mxCell>
        <mxCell id="g67Yw9Pypv5ZU0-nCZ06-29" value="Choose the best possible combinations of p and q" style="rounded=1;whiteSpace=wrap;html=1;fontFamily=Lucida Console;fontSize=15;strokeWidth=2;fillColor=#A8DADC;strokeColor=#457B9D;fontColor=#1D3557;" vertex="1" parent="WIyWlLk6GJQsqaUBKTNV-1">
          <mxGeometry x="-946.5" y="480" width="193" height="90" as="geometry" />
        </mxCell>
        <mxCell id="g67Yw9Pypv5ZU0-nCZ06-30" value="" style="edgeStyle=segmentEdgeStyle;endArrow=classic;html=1;rounded=1;fontFamily=Lucida Console;fontSize=15;entryX=0.47;entryY=-0.004;entryDx=0;entryDy=0;entryPerimeter=0;labelBackgroundColor=#F1FAEE;strokeColor=#457B9D;fontColor=#1D3557;" edge="1" parent="WIyWlLk6GJQsqaUBKTNV-1" target="g67Yw9Pypv5ZU0-nCZ06-25">
          <mxGeometry width="50" height="50" relative="1" as="geometry">
            <mxPoint x="-970" y="340" as="sourcePoint" />
            <mxPoint x="-1130" y="340" as="targetPoint" />
          </mxGeometry>
        </mxCell>
        <mxCell id="g67Yw9Pypv5ZU0-nCZ06-31" value="Yes" style="text;html=1;align=center;verticalAlign=middle;resizable=0;points=[];autosize=1;strokeColor=none;fillColor=none;fontSize=15;fontFamily=Lucida Console;fontColor=#1D3557;rounded=1;" vertex="1" parent="WIyWlLk6GJQsqaUBKTNV-1">
          <mxGeometry x="-1060" y="320" width="40" height="20" as="geometry" />
        </mxCell>
        <mxCell id="g67Yw9Pypv5ZU0-nCZ06-32" value="Determine the values of p and q according to the BIC minimum principle" style="rounded=1;whiteSpace=wrap;html=1;fontFamily=Lucida Console;fontSize=15;strokeWidth=2;fillColor=#A8DADC;strokeColor=#457B9D;fontColor=#1D3557;" vertex="1" parent="WIyWlLk6GJQsqaUBKTNV-1">
          <mxGeometry x="-590" y="480" width="193" height="90" as="geometry" />
        </mxCell>
        <mxCell id="g67Yw9Pypv5ZU0-nCZ06-47" value="" style="edgeStyle=orthogonalEdgeStyle;rounded=1;orthogonalLoop=1;jettySize=auto;html=1;fontFamily=Lucida Console;fontSize=15;labelBackgroundColor=#F1FAEE;strokeColor=#457B9D;fontColor=#1D3557;" edge="1" parent="WIyWlLk6GJQsqaUBKTNV-1" source="g67Yw9Pypv5ZU0-nCZ06-39" target="g67Yw9Pypv5ZU0-nCZ06-46">
          <mxGeometry relative="1" as="geometry" />
        </mxCell>
        <mxCell id="g67Yw9Pypv5ZU0-nCZ06-60" style="edgeStyle=orthogonalEdgeStyle;rounded=1;orthogonalLoop=1;jettySize=auto;html=1;entryX=1;entryY=0.5;entryDx=0;entryDy=0;fontColor=#1D3557;strokeColor=#457B9D;fillColor=#A8DADC;labelBackgroundColor=#F1FAEE;" edge="1" parent="WIyWlLk6GJQsqaUBKTNV-1" source="g67Yw9Pypv5ZU0-nCZ06-39" target="g67Yw9Pypv5ZU0-nCZ06-59">
          <mxGeometry relative="1" as="geometry" />
        </mxCell>
        <mxCell id="g67Yw9Pypv5ZU0-nCZ06-39" value="Estimate model&lt;br&gt;&amp;nbsp;parameters and perform a white noise test&lt;span&gt;&lt;br&gt;&lt;/span&gt;" style="strokeWidth=2;html=1;shape=mxgraph.flowchart.decision;whiteSpace=wrap;fontFamily=Lucida Console;fontSize=15;fillColor=#A8DADC;strokeColor=#457B9D;fontColor=#1D3557;rounded=1;" vertex="1" parent="WIyWlLk6GJQsqaUBKTNV-1">
          <mxGeometry x="-970" y="650" width="240" height="120" as="geometry" />
        </mxCell>
        <mxCell id="g67Yw9Pypv5ZU0-nCZ06-42" value="p &amp;lt; 0.05" style="text;html=1;align=center;verticalAlign=middle;resizable=0;points=[];autosize=1;strokeColor=none;fillColor=none;fontSize=15;fontFamily=Lucida Console;fontColor=#1D3557;rounded=1;" vertex="1" parent="WIyWlLk6GJQsqaUBKTNV-1">
          <mxGeometry x="-1085" y="720" width="90" height="20" as="geometry" />
        </mxCell>
        <mxCell id="g67Yw9Pypv5ZU0-nCZ06-49" value="" style="edgeStyle=orthogonalEdgeStyle;rounded=1;orthogonalLoop=1;jettySize=auto;html=1;fontFamily=Lucida Console;fontSize=15;labelBackgroundColor=#F1FAEE;strokeColor=#457B9D;fontColor=#1D3557;" edge="1" parent="WIyWlLk6GJQsqaUBKTNV-1" source="g67Yw9Pypv5ZU0-nCZ06-46" target="g67Yw9Pypv5ZU0-nCZ06-48">
          <mxGeometry relative="1" as="geometry" />
        </mxCell>
        <mxCell id="g67Yw9Pypv5ZU0-nCZ06-46" value="Get a suitable ARIMA (p,d,q) model to make predictions on the data" style="rounded=1;whiteSpace=wrap;html=1;fontFamily=Lucida Console;fontSize=15;strokeWidth=2;fillColor=#A8DADC;strokeColor=#457B9D;fontColor=#1D3557;" vertex="1" parent="WIyWlLk6GJQsqaUBKTNV-1">
          <mxGeometry x="-946.5" y="850" width="193" height="90" as="geometry" />
        </mxCell>
        <mxCell id="g67Yw9Pypv5ZU0-nCZ06-48" value="Finish" style="rounded=1;whiteSpace=wrap;html=1;fontFamily=Lucida Console;fontSize=15;strokeWidth=2;fillColor=#A8DADC;strokeColor=#457B9D;fontColor=#1D3557;" vertex="1" parent="WIyWlLk6GJQsqaUBKTNV-1">
          <mxGeometry x="-1300" y="850" width="193" height="90" as="geometry" />
        </mxCell>
        <mxCell id="g67Yw9Pypv5ZU0-nCZ06-52" value="p &amp;gt;= 0.05" style="text;html=1;align=center;verticalAlign=middle;resizable=0;points=[];autosize=1;strokeColor=none;fillColor=none;fontSize=15;fontFamily=Lucida Console;fontColor=#1D3557;rounded=1;" vertex="1" parent="WIyWlLk6GJQsqaUBKTNV-1">
          <mxGeometry x="-850" y="800" width="100" height="20" as="geometry" />
        </mxCell>
        <mxCell id="g67Yw9Pypv5ZU0-nCZ06-57" value="" style="edgeStyle=segmentEdgeStyle;endArrow=classic;html=1;rounded=1;fontColor=#1D3557;strokeColor=#457B9D;fillColor=#A8DADC;exitX=0.5;exitY=1;exitDx=0;exitDy=0;entryX=1;entryY=0.5;entryDx=0;entryDy=0;entryPerimeter=0;labelBackgroundColor=#F1FAEE;" edge="1" parent="WIyWlLk6GJQsqaUBKTNV-1" source="g67Yw9Pypv5ZU0-nCZ06-32" target="g67Yw9Pypv5ZU0-nCZ06-39">
          <mxGeometry width="50" height="50" relative="1" as="geometry">
            <mxPoint x="-478" y="611" as="sourcePoint" />
            <mxPoint x="-711" y="709" as="targetPoint" />
            <Array as="points">
              <mxPoint x="-493" y="709" />
              <mxPoint x="-730" y="709" />
            </Array>
          </mxGeometry>
        </mxCell>
        <mxCell id="g67Yw9Pypv5ZU0-nCZ06-61" style="edgeStyle=orthogonalEdgeStyle;rounded=1;orthogonalLoop=1;jettySize=auto;html=1;entryX=0.5;entryY=1;entryDx=0;entryDy=0;fontColor=#1D3557;strokeColor=#457B9D;fillColor=#A8DADC;labelBackgroundColor=#F1FAEE;" edge="1" parent="WIyWlLk6GJQsqaUBKTNV-1" source="g67Yw9Pypv5ZU0-nCZ06-59" target="g67Yw9Pypv5ZU0-nCZ06-25">
          <mxGeometry relative="1" as="geometry" />
        </mxCell>
        <mxCell id="g67Yw9Pypv5ZU0-nCZ06-59" value="Remove this combination of p and q" style="rounded=1;whiteSpace=wrap;html=1;fontFamily=Lucida Console;fontSize=15;strokeWidth=2;fillColor=#A8DADC;strokeColor=#457B9D;fontColor=#1D3557;" vertex="1" parent="WIyWlLk6GJQsqaUBKTNV-1">
          <mxGeometry x="-1300" y="665" width="193" height="90" as="geometry" />
        </mxCell>
      </root>
    </mxGraphModel>
  </diagram>
</mxfile>
